# Blender 4.4.0
# www.blender.org
mtllib Pistol.mtl
o 立方体.001
v -0.052662 -0.239576 -0.132954
v -0.052662 0.079740 -0.063380
v -0.052662 -0.217710 -0.233310
v -0.052662 0.101606 -0.163736
v 0.052662 -0.239576 -0.132954
v 0.052662 0.079740 -0.063380
v 0.052662 -0.217710 -0.233310
v 0.052662 0.101606 -0.163736
v -0.056022 0.038168 0.389476
v -0.056022 0.195200 0.389476
v -0.056022 0.038168 -0.238650
v -0.056022 0.195200 -0.238650
v 0.056022 0.038168 0.389476
v 0.056022 0.195200 0.389476
v 0.056022 0.038168 -0.238650
v 0.056022 0.195200 -0.238650
v -0.015686 -0.080270 -0.097892
v -0.015686 -0.080270 0.059138
v -0.015686 -0.036300 -0.097892
v -0.015686 -0.036300 0.059138
v 0.015686 -0.080270 -0.097892
v 0.015686 -0.080270 0.059138
v 0.015686 -0.036300 -0.097892
v 0.015686 -0.036300 0.059138
v -0.015686 -0.080254 0.059020
v -0.015686 0.077316 0.162366
v -0.015686 -0.056140 0.022254
v -0.015686 0.101430 0.125600
v 0.015686 -0.080254 0.059020
v 0.015686 0.077316 0.162366
v 0.015686 -0.056140 0.022254
v 0.015686 0.101430 0.125600
vn -1.0000 -0.0000 -0.0000
vn -0.0000 0.2129 -0.9771
vn 1.0000 -0.0000 -0.0000
vn -0.0000 -0.2129 0.9771
vn -0.0000 -0.9771 -0.2129
vn -0.0000 0.9771 0.2129
vn -0.0000 -0.0000 -1.0000
vn -0.0000 -0.0000 1.0000
vn -0.0000 -1.0000 -0.0000
vn -0.0000 1.0000 -0.0000
vn -0.0000 0.5484 -0.8362
vn -0.0000 -0.5484 0.8362
vn -0.0000 -0.8362 -0.5484
vn -0.0000 0.8362 0.5484
vt 0.625000 0.000000
vt 0.375000 0.250000
vt 0.375000 0.000000
vt 0.625000 0.250000
vt 0.375000 0.500000
vt 0.625000 0.500000
vt 0.375000 0.750000
vt 0.625000 0.750000
vt 0.375000 1.000000
vt 0.125000 0.750000
vt 0.125000 0.500000
vt 0.875000 0.500000
vt 0.625000 1.000000
vt 0.875000 0.750000
s 1
usemtl マテリアル
f 2/1/1 3/2/1 1/3/1
f 4/4/2 7/5/2 3/2/2
f 8/6/3 5/7/3 7/5/3
f 6/8/4 1/9/4 5/7/4
f 7/5/5 1/10/5 3/11/5
f 4/12/6 6/8/6 8/6/6
f 10/1/1 11/2/1 9/3/1
f 12/4/7 15/5/7 11/2/7
f 15/5/3 14/8/3 13/7/3
f 14/8/8 9/9/8 13/7/8
f 15/5/9 9/10/9 11/11/9
f 12/12/10 14/8/10 16/6/10
f 18/1/1 19/2/1 17/3/1
f 20/4/10 23/5/10 19/2/10
f 24/6/3 21/7/3 23/5/3
f 22/8/9 17/9/9 21/7/9
f 23/5/7 17/10/7 19/11/7
f 20/12/8 22/8/8 24/6/8
f 25/3/1 28/4/1 27/2/1
f 28/4/11 31/5/11 27/2/11
f 32/6/3 29/7/3 31/5/3
f 30/8/12 25/9/12 29/7/12
f 31/5/13 25/10/13 27/11/13
f 28/12/14 30/8/14 32/6/14
f 2/1/1 4/4/1 3/2/1
f 4/4/2 8/6/2 7/5/2
f 8/6/3 6/8/3 5/7/3
f 6/8/4 2/13/4 1/9/4
f 7/5/5 5/7/5 1/10/5
f 4/12/6 2/14/6 6/8/6
f 10/1/1 12/4/1 11/2/1
f 12/4/7 16/6/7 15/5/7
f 15/5/3 16/6/3 14/8/3
f 14/8/8 10/13/8 9/9/8
f 15/5/9 13/7/9 9/10/9
f 12/12/10 10/14/10 14/8/10
f 18/1/1 20/4/1 19/2/1
f 20/4/10 24/6/10 23/5/10
f 24/6/3 22/8/3 21/7/3
f 22/8/9 18/13/9 17/9/9
f 23/5/7 21/7/7 17/10/7
f 20/12/8 18/14/8 22/8/8
f 25/3/1 26/1/1 28/4/1
f 28/4/11 32/6/11 31/5/11
f 32/6/3 30/8/3 29/7/3
f 30/8/12 26/13/12 25/9/12
f 31/5/13 29/7/13 25/10/13
f 28/12/14 26/14/14 30/8/14
