# Blender 4.4.0
# www.blender.org
mtllib Shotgun.mtl
o Cube.003
v 0.022143 -0.042623 1.111874
v -0.022143 -0.042623 1.111874
v 0.022143 -0.042623 1.146400
v 0.022143 -0.063826 1.111874
v -0.022143 -0.063826 1.111874
v 0.022143 -0.063826 1.146400
v -0.022143 -0.063826 1.146400
v -0.022143 -0.042623 1.146400
v 0.022143 -0.042623 0.856529
v -0.022143 -0.042623 0.856529
v 0.022143 -0.042623 0.891055
v 0.022143 -0.063826 0.856529
v -0.022143 -0.063826 0.856529
v 0.022143 -0.063826 0.891055
v -0.022143 -0.063826 0.891055
v -0.022143 -0.042623 0.891055
v 0.022143 -0.056661 0.426030
v -0.022143 -0.056661 0.426030
v 0.022143 -0.056661 1.180616
v 0.022143 -0.100946 0.426030
v -0.022143 -0.100946 0.426030
v 0.022143 -0.100946 1.180616
v -0.022143 -0.100946 1.180616
v -0.022143 -0.056661 1.180616
v 0.068407 -0.118732 -0.976684
v 0.068407 -0.382327 -0.976684
v -0.068407 -0.118732 -0.976684
v 0.068407 -0.118732 -0.616684
v 0.068407 -0.291383 -0.616684
v -0.068407 -0.118732 -0.616684
v -0.068407 -0.291383 -0.616684
v -0.068407 -0.382327 -0.976684
v 0.015074 -0.051403 -0.090380
v 0.015074 -0.185067 -0.129665
v -0.015074 -0.051403 -0.090380
v 0.015074 -0.039214 -0.116584
v 0.015074 -0.172878 -0.155869
v -0.015074 -0.039214 -0.116584
v -0.015074 -0.172878 -0.155869
v -0.015074 -0.185067 -0.129665
v 0.065648 0.014361 -0.325692
v -0.065648 0.014361 -0.325692
v 0.065648 0.014361 0.428894
v 0.065648 -0.116936 -0.325692
v -0.065648 -0.116936 -0.325692
v 0.065648 -0.116936 0.428894
v -0.065648 -0.116936 0.428894
v -0.065648 0.014361 0.428894
v 0.015074 -0.154049 -0.481086
v -0.015074 -0.154049 -0.481086
v 0.015074 -0.154049 -0.127780
v 0.015074 -0.184197 -0.481086
v -0.015074 -0.184197 -0.481086
v 0.015074 -0.184197 -0.127780
v -0.015074 -0.184197 -0.127780
v -0.015074 -0.154049 -0.127780
v 0.066790 -0.120384 -0.681571
v 0.066790 -0.291526 -0.617429
v -0.066790 -0.120384 -0.681571
v 0.066790 0.013732 -0.323725
v 0.066790 -0.098364 -0.281713
v -0.066790 0.013732 -0.323725
v -0.066790 -0.098364 -0.281713
v -0.066790 -0.291526 -0.617429
v 0.022143 -0.001071 0.426030
v -0.022143 -0.001071 0.426030
v 0.022143 -0.001071 1.180616
v 0.022143 -0.045356 0.426030
v -0.022143 -0.045356 0.426030
v 0.022143 -0.045356 1.180616
v -0.022143 -0.045356 1.180616
v -0.022143 -0.001071 1.180616
v 0.022143 -0.042623 0.423608
v -0.022143 -0.042623 0.423608
v 0.022143 -0.042623 0.563460
v 0.022143 -0.063826 0.423608
v -0.022143 -0.063826 0.423608
v 0.022143 -0.063826 0.563460
v -0.022143 -0.063826 0.563460
v -0.022143 -0.042623 0.563460
vn -0.0000 -0.0000 -1.0000
vn -0.0000 1.0000 -0.0000
vn 1.0000 -0.0000 -0.0000
vn -0.0000 -1.0000 -0.0000
vn -0.0000 -0.0000 1.0000
vn -1.0000 -0.0000 -0.0000
vn -0.0000 -0.9695 0.2449
vn -0.0000 -0.2820 0.9594
vn -0.0000 0.9067 0.4218
vn -0.0000 0.2820 -0.9594
vn -0.0000 -0.9067 -0.4218
vn -0.0000 -0.3509 -0.9364
vn -0.0000 0.9364 -0.3509
vn -0.0000 0.3509 0.9364
vn -0.0000 -0.8668 0.4987
vt 0.625000 0.500000
vt 0.375000 0.250000
vt 0.625000 0.250000
vt 0.875000 0.750000
vt 0.875000 0.500000
vt 0.375000 0.750000
vt 0.375000 0.500000
vt 0.125000 0.500000
vt 0.625000 1.000000
vt 0.625000 0.750000
vt 0.375000 0.000000
vt 0.625000 0.000000
vt 0.125000 0.750000
vt 0.375000 1.000000
s 1
usemtl マテリアル.009
f 1/1/1 5/2/1 2/3/1
f 8/4/2 1/1/2 2/5/2
f 1/1/3 6/6/3 4/7/3
f 6/6/4 5/8/4 4/7/4
f 8/9/5 6/6/5 3/10/5
f 2/3/6 7/11/6 8/12/6
f 9/1/1 13/2/1 10/3/1
f 16/4/2 9/1/2 10/5/2
f 9/1/3 14/6/3 12/7/3
f 14/6/4 13/8/4 12/7/4
f 16/9/5 14/6/5 11/10/5
f 10/3/6 15/11/6 16/12/6
f 17/1/1 21/2/1 18/3/1
f 24/4/2 17/1/2 18/5/2
f 19/10/3 20/7/3 17/1/3
f 22/6/4 21/8/4 20/7/4
f 24/9/5 22/6/5 19/10/5
f 18/3/6 23/11/6 24/12/6
f 25/1/3 29/6/3 26/7/3
f 25/1/1 32/2/1 27/3/1
f 30/4/2 25/1/2 27/5/2
f 30/9/5 29/6/5 28/10/5
f 31/11/6 27/3/6 32/2/6
f 29/6/7 32/8/7 26/7/7
f 40/4/8 33/1/8 35/5/8
f 33/1/3 37/6/3 36/7/3
f 33/1/9 38/2/9 35/3/9
f 37/6/10 38/8/10 36/7/10
f 35/3/6 39/11/6 40/12/6
f 40/9/11 37/6/11 34/10/11
f 41/1/1 45/2/1 42/3/1
f 48/4/2 41/1/2 42/5/2
f 41/1/3 46/6/3 44/7/3
f 46/6/4 45/8/4 44/7/4
f 48/9/5 46/6/5 43/10/5
f 42/3/6 47/11/6 48/12/6
f 49/1/1 53/2/1 50/3/1
f 56/4/2 49/1/2 50/5/2
f 51/10/3 52/7/3 49/1/3
f 54/6/4 53/8/4 52/7/4
f 56/9/5 54/6/5 51/10/5
f 50/3/6 55/11/6 56/12/6
f 57/1/3 61/6/3 58/7/3
f 57/1/12 64/2/12 59/3/12
f 62/4/13 57/1/13 59/5/13
f 62/9/14 61/6/14 60/10/14
f 63/11/6 59/3/6 64/2/6
f 61/6/15 64/8/15 58/7/15
f 65/1/1 69/2/1 66/3/1
f 72/4/2 65/1/2 66/5/2
f 67/10/3 68/7/3 65/1/3
f 70/6/4 69/8/4 68/7/4
f 72/9/5 70/6/5 67/10/5
f 66/3/6 71/11/6 72/12/6
f 73/1/1 77/2/1 74/3/1
f 80/4/2 73/1/2 74/5/2
f 75/10/3 76/7/3 73/1/3
f 78/6/4 77/8/4 76/7/4
f 80/9/5 78/6/5 75/10/5
f 74/3/6 79/11/6 80/12/6
f 1/1/1 4/7/1 5/2/1
f 8/4/2 3/10/2 1/1/2
f 1/1/3 3/10/3 6/6/3
f 6/6/4 7/13/4 5/8/4
f 8/9/5 7/14/5 6/6/5
f 2/3/6 5/2/6 7/11/6
f 9/1/1 12/7/1 13/2/1
f 16/4/2 11/10/2 9/1/2
f 9/1/3 11/10/3 14/6/3
f 14/6/4 15/13/4 13/8/4
f 16/9/5 15/14/5 14/6/5
f 10/3/6 13/2/6 15/11/6
f 17/1/1 20/7/1 21/2/1
f 24/4/2 19/10/2 17/1/2
f 19/10/3 22/6/3 20/7/3
f 22/6/4 23/13/4 21/8/4
f 24/9/5 23/14/5 22/6/5
f 18/3/6 21/2/6 23/11/6
f 25/1/3 28/10/3 29/6/3
f 25/1/1 26/7/1 32/2/1
f 30/4/2 28/10/2 25/1/2
f 30/9/5 31/14/5 29/6/5
f 31/11/6 30/12/6 27/3/6
f 29/6/7 31/13/7 32/8/7
f 40/4/8 34/10/8 33/1/8
f 33/1/3 34/10/3 37/6/3
f 33/1/9 36/7/9 38/2/9
f 37/6/10 39/13/10 38/8/10
f 35/3/6 38/2/6 39/11/6
f 40/9/11 39/14/11 37/6/11
f 41/1/1 44/7/1 45/2/1
f 48/4/2 43/10/2 41/1/2
f 41/1/3 43/10/3 46/6/3
f 46/6/4 47/13/4 45/8/4
f 48/9/5 47/14/5 46/6/5
f 42/3/6 45/2/6 47/11/6
f 49/1/1 52/7/1 53/2/1
f 56/4/2 51/10/2 49/1/2
f 51/10/3 54/6/3 52/7/3
f 54/6/4 55/13/4 53/8/4
f 56/9/5 55/14/5 54/6/5
f 50/3/6 53/2/6 55/11/6
f 57/1/3 60/10/3 61/6/3
f 57/1/12 58/7/12 64/2/12
f 62/4/13 60/10/13 57/1/13
f 62/9/14 63/14/14 61/6/14
f 63/11/6 62/12/6 59/3/6
f 61/6/15 63/13/15 64/8/15
f 65/1/1 68/7/1 69/2/1
f 72/4/2 67/10/2 65/1/2
f 67/10/3 70/6/3 68/7/3
f 70/6/4 71/13/4 69/8/4
f 72/9/5 71/14/5 70/6/5
f 66/3/6 69/2/6 71/11/6
f 73/1/1 76/7/1 77/2/1
f 80/4/2 75/10/2 73/1/2
f 75/10/3 78/6/3 76/7/3
f 78/6/4 79/13/4 77/8/4
f 80/9/5 79/14/5 78/6/5
f 74/3/6 77/2/6 79/11/6
