# Blender 4.4.0
# www.blender.org
mtllib Wavegun.mtl
o 立方体.001
v -0.052662 -0.239576 -0.132954
v -0.052662 0.079740 -0.063380
v -0.052662 -0.217710 -0.233310
v -0.052662 0.101606 -0.163736
v 0.052662 -0.239576 -0.132954
v 0.052662 0.079740 -0.063380
v 0.052662 -0.217710 -0.233310
v 0.052662 0.101606 -0.163736
v -0.056022 0.001396 0.402090
v -0.056022 0.158428 0.402090
v -0.056022 0.001315 -0.211620
v -0.056022 0.158347 -0.211620
v 0.056022 0.001396 0.402090
v 0.056022 0.158428 0.402090
v 0.056022 0.001315 -0.211620
v 0.056022 0.158347 -0.211620
v -0.015686 -0.080270 -0.097892
v -0.015686 -0.080270 0.059138
v -0.015686 -0.036300 -0.097892
v -0.015686 -0.036300 0.059138
v 0.015686 -0.080270 -0.097892
v 0.015686 -0.080270 0.059138
v 0.015686 -0.036300 -0.097892
v 0.015686 -0.036300 0.059138
v -0.015686 -0.080254 0.059020
v -0.015686 0.077316 0.162366
v -0.015686 -0.056140 0.022254
v -0.015686 0.101430 0.125600
v 0.015686 -0.080254 0.059020
v 0.015686 0.077316 0.162366
v 0.015686 -0.056140 0.022254
v 0.015686 0.101430 0.125600
v -0.056022 -0.025910 0.102906
v 0.056022 -0.025910 0.102906
v 0.056022 0.131122 0.102906
v -0.056022 0.131122 0.102906
v -0.056022 0.083234 -0.051942
v 0.056022 0.083234 -0.051942
v 0.056022 0.240266 -0.051942
v -0.056022 0.240266 -0.051942
v -0.056022 0.083071 0.257291
v 0.056022 0.083071 0.257291
v 0.056022 0.240103 0.257291
v -0.056022 0.240103 0.257291
vn -1.0000 -0.0000 -0.0000
vn -0.0000 -0.0000 1.0000
vn -0.0000 0.9771 0.2129
vn -0.0000 0.2129 -0.9771
vn -0.0000 0.8710 0.4913
vn -0.0000 0.9987 -0.0505
vn -0.0000 -1.0000 -0.0000
vn 1.0000 -0.0000 -0.0000
vn -0.0000 -0.2129 0.9771
vn -0.0000 1.0000 -0.0000
vn -0.0000 -0.9771 -0.2129
vn -0.0000 -0.8710 -0.4913
vn -0.0000 -0.9987 0.0505
vn -0.0000 0.8362 0.5484
vn -0.0000 0.5484 -0.8362
vn -0.0000 -0.0000 -1.0000
vn -0.0000 -0.5484 0.8362
vn -0.0000 -0.8362 -0.5484
vn -0.0000 -1.0000 0.0004
vn -0.0000 -0.9976 -0.0699
vn -0.0000 1.0000 -0.0004
vn -0.0000 0.9976 0.0699
vn -0.0000 0.8897 -0.4565
vn -0.0000 -0.8897 0.4565
vt 0.625000 0.250000
vt 0.375000 0.186447
vt 0.625000 0.186447
vt 0.875000 0.750000
vt 0.625000 0.500000
vt 0.875000 0.500000
vt 0.625000 1.000000
vt 0.375000 0.750000
vt 0.625000 0.750000
vt 0.375000 0.000000
vt 0.625000 0.000000
vt 0.375000 0.250000
vt 0.625000 0.688553
vt 0.875000 0.688553
vt 0.375000 0.500000
vt 0.125000 0.500000
vt 0.125000 0.688553
vt 0.375000 0.688553
vt 0.375000 0.563553
vt 0.625000 0.627106
vt 0.375000 0.627106
vt 0.125000 0.563553
vt 0.875000 0.627106
vt 0.625000 0.563553
vt 0.875000 0.563553
vt 0.625000 0.122894
vt 0.375000 0.061447
vt 0.625000 0.061447
vt 0.375000 0.122894
vt 0.125000 0.627106
vt 0.375000 1.000000
vt 0.125000 0.750000
s 1
usemtl マテリアル
f 12/1/1 37/2/1 40/3/1
f 18/4/2 24/5/2 20/6/2
f 10/7/2 13/8/2 14/9/2
f 4/1/1 1/10/1 2/11/1
f 2/4/3 8/5/3 4/6/3
f 8/5/4 3/12/4 4/1/4
f 10/4/5 43/13/6 44/14/6
f 18/7/7 21/8/7 22/9/7
f 22/9/8 23/15/8 24/5/8
f 2/7/9 5/8/9 6/9/9
f 24/5/10 19/12/10 20/1/10
f 5/8/11 3/16/11 7/15/11
f 13/8/12 41/17/13 42/18/13
f 26/4/14 32/5/14 28/6/14
f 32/5/15 27/12/15 28/1/15
f 8/5/8 5/8/8 7/15/8
f 16/5/16 11/12/16 12/1/16
f 42/18/8 14/9/8 13/8/8
f 20/1/1 17/10/1 18/11/1
f 26/11/1 27/12/1 25/10/1
f 21/8/16 19/16/16 23/15/16
f 26/7/17 29/8/17 30/9/17
f 30/9/8 31/15/8 32/5/8
f 29/8/18 27/16/18 31/15/18
f 38/19/8 35/20/8 34/21/8
f 34/21/19 37/22/20 38/19/20
f 36/23/21 39/24/22 40/25/22
f 36/26/1 41/27/1 44/28/1
f 40/25/22 16/5/23 12/6/23
f 38/19/20 11/16/24 15/15/24
f 16/5/8 38/19/8 15/15/8
f 36/26/1 37/2/1 33/29/1
f 10/11/1 41/27/1 9/10/1
f 35/20/8 42/18/8 34/21/8
f 42/18/13 33/30/19 34/21/19
f 44/14/6 35/20/21 36/23/21
f 12/1/1 11/12/1 37/2/1
f 18/4/2 22/9/2 24/5/2
f 10/7/2 9/31/2 13/8/2
f 4/1/1 3/12/1 1/10/1
f 2/4/3 6/9/3 8/5/3
f 8/5/4 7/15/4 3/12/4
f 10/4/5 14/9/5 43/13/6
f 18/7/7 17/31/7 21/8/7
f 22/9/8 21/8/8 23/15/8
f 2/7/9 1/31/9 5/8/9
f 24/5/10 23/15/10 19/12/10
f 5/8/11 1/32/11 3/16/11
f 13/8/12 9/32/12 41/17/13
f 26/4/14 30/9/14 32/5/14
f 32/5/15 31/15/15 27/12/15
f 8/5/8 6/9/8 5/8/8
f 16/5/16 15/15/16 11/12/16
f 42/18/8 43/13/8 14/9/8
f 20/1/1 19/12/1 17/10/1
f 26/11/1 28/1/1 27/12/1
f 21/8/16 17/32/16 19/16/16
f 26/7/17 25/31/17 29/8/17
f 30/9/8 29/8/8 31/15/8
f 29/8/18 25/32/18 27/16/18
f 38/19/8 39/24/8 35/20/8
f 34/21/19 33/30/19 37/22/20
f 36/23/21 35/20/21 39/24/22
f 36/26/1 33/29/1 41/27/1
f 40/25/22 39/24/22 16/5/23
f 38/19/20 37/22/20 11/16/24
f 16/5/8 39/24/8 38/19/8
f 36/26/1 40/3/1 37/2/1
f 10/11/1 44/28/1 41/27/1
f 35/20/8 43/13/8 42/18/8
f 42/18/13 41/17/13 33/30/19
f 44/14/6 43/13/6 35/20/21
